<?xml version="1.0" encoding="UTF-8" standalone="no"?>
<!-- Created with Inkscape (http://www.inkscape.org/) -->

<svg
   xmlns:dc="http://purl.org/dc/elements/1.1/"
   xmlns:cc="http://creativecommons.org/ns#"
   xmlns:rdf="http://www.w3.org/1999/02/22-rdf-syntax-ns#"
   xmlns:svg="http://www.w3.org/2000/svg"
   xmlns="http://www.w3.org/2000/svg"
   xmlns:sodipodi="http://sodipodi.sourceforge.net/DTD/sodipodi-0.dtd"
   xmlns:inkscape="http://www.inkscape.org/namespaces/inkscape"
   width="1920"
   height="1052.3622"
   viewBox="0 0 1920 1052.3622"
   id="svg2"
   version="1.1"
   inkscape:version="0.91 r13725"
   sodipodi:docname="chicken.svg">
  <defs
     id="defs4">
    <inkscape:path-effect
       effect="bend_path"
       id="path-effect10601"
       is_visible="true"
       bendpath="m 832.56437,469.35061 c 24.15292,-16.6958 48.83303,-20.45051 74.49922,0"
       prop_scale="1"
       scale_y_rel="false"
       vertical="false"
       bendpath-nodetypes="cc" />
    <inkscape:perspective
       sodipodi:type="inkscape:persp3d"
       inkscape:vp_x="-82.731493 : 401.0232 : 1"
       inkscape:vp_y="0 : 1000 : 0"
       inkscape:vp_z="1837.2685 : 401.0232 : 1"
       inkscape:persp3d-origin="877.26851 : 225.6295 : 1"
       id="perspective4310" />
  </defs>
  <sodipodi:namedview
     id="base"
     pagecolor="#ffffff"
     bordercolor="#666666"
     borderopacity="1.0"
     inkscape:pageopacity="0.0"
     inkscape:pageshadow="2"
     inkscape:zoom="4"
     inkscape:cx="874.50942"
     inkscape:cy="829.15762"
     inkscape:document-units="px"
     inkscape:current-layer="layer3"
     showgrid="false"
     units="px"
     inkscape:window-width="1916"
     inkscape:window-height="1028"
     inkscape:window-x="0"
     inkscape:window-y="24"
     inkscape:window-maximized="0" />
  <metadata
     id="metadata7">
    <rdf:RDF>
      <cc:Work
         rdf:about="">
        <dc:format>image/svg+xml</dc:format>
        <dc:type
           rdf:resource="http://purl.org/dc/dcmitype/StillImage" />
        <dc:title></dc:title>
      </cc:Work>
    </rdf:RDF>
  </metadata>
  <g
     inkscape:label="Body"
     inkscape:groupmode="layer"
     id="layer1"
     transform="translate(0,2.2107222e-5)"
     style="display:inline" />
  <g
     inkscape:groupmode="layer"
     id="layer2"
     inkscape:label="Head"
     style="display:inline">
    <g
       transform="matrix(0.83223753,0,0,0.92209891,84.249343,6.955431)"
       id="g10396">
      <g
         id="g10519">
        <g
           style="display:inline"
           id="g3374"
           transform="translate(101.1078,15.336897)">
          <path
             inkscape:connector-curvature="0"
             id="path3345-6"
             d="m 810.72101,321.32633 c 0,-0.44382 29.94768,-67.54623 30.34351,-67.98925 0.22287,-0.24948 33.49174,65.47981 33.49174,66.16966 0,0.168 -2.16944,-0.70383 -4.82092,-1.93723 -8.52956,-3.9677 -14.11719,-5.08671 -25.43434,-5.09362 -8.93117,-0.005 -10.60014,0.17842 -15.95877,1.75911 -3.29158,0.97087 -8.60292,3.05524 -11.8029,4.63194 -3.20017,1.57671 -5.81832,2.68344 -5.81832,2.45939 z"
             style="fill:#deaa87;fill-opacity:1;stroke:none;stroke-width:2.0999999;stroke-miterlimit:4;stroke-dasharray:none;stroke-opacity:1" />
          <ellipse
             style="fill:#003380;fill-opacity:1;stroke:none;stroke-width:2.0999999;stroke-miterlimit:4;stroke-dasharray:none;stroke-opacity:1"
             id="path4250"
             cx="841.24347"
             cy="230.40013"
             rx="47.25"
             ry="61.25" />
        </g>
        <path
           inkscape:connector-curvature="0"
           id="path10393"
           d="m 976.53293,239.57352 c -6.12267,-2.33718 -11.96992,-7.82344 -15.97597,-14.98968 -3.05686,-5.46826 -5.42693,-12.63173 -6.73491,-20.35608 -0.98067,-5.79144 -1.26814,-9.60804 -1.28709,-17.08843 -0.0168,-6.65654 0.002,-6.99667 0.48205,-8.70582 1.81671,-6.46784 5.47256,-11.36692 10.90929,-14.61919 4.3527,-2.60379 9.11696,-3.87061 14.5566,-3.87061 12.57957,0 22.3332,7.027 25.4823,18.35887 0.4605,1.65691 0.4829,2.08376 0.4771,9.09332 -0.01,7.67132 -0.2289,10.75992 -1.1937,16.5635 -1.6937,10.18807 -5.08605,18.88785 -9.83575,25.22431 -3.45218,4.60551 -8.22682,8.50883 -12.51236,10.22901 -2.44211,0.98024 -2.24031,0.97282 -4.36756,0.1608 z"
           style="display:inline;fill:#deaa87;fill-opacity:1;stroke:none;stroke-width:2.0999999;stroke-miterlimit:4;stroke-dasharray:none;stroke-opacity:1"
           transform="matrix(1.20158,0,0,1.0844824,-233.77701,-21.346225)" />
        <path
           inkscape:connector-curvature="0"
           id="path4193"
           d="m 932.13743,154.32405 c 2.72087,-9.44134 4.79998,-14.23806 7.29283,-16.82528 1.46069,-1.51599 2.84739,-1.90471 4.24722,-1.19057 0.92437,0.47158 2.41829,2.14763 3.44839,3.86878 1.59036,2.65731 3.64858,7.96099 4.93729,12.72256 0.39115,1.44525 0.40922,1.63174 0.1508,1.55565 -0.88668,-0.26108 -3.46032,-0.64457 -5.53234,-0.82437 -2.67006,-0.23169 -6.24328,-0.11867 -8.90342,0.28162 -1.64817,0.24801 -4.91555,0.96957 -5.60824,1.23851 -0.28595,0.11102 -0.28798,0.0595 -0.0325,-0.8269 z"
           style="display:inline;fill:#ffdd55;fill-opacity:1;stroke:none;stroke-width:2.0999999;stroke-miterlimit:4;stroke-dasharray:none;stroke-opacity:1" />
        <path
           inkscape:connector-curvature="0"
           id="path4289"
           d="m 944.36956,216.5908 c -3.75577,3.12788 -7.09087,5.50158 -9.40282,6.69234 -4.86554,2.50594 -5.75799,0.52436 -2.85092,-6.33017 1.58542,-3.73829 3.89657,-8.18915 7.16997,-13.8082 l 1.53228,-2.63025 -0.76434,0.52756 c -3.18893,2.20109 -5.17283,2.9405 -6.70027,2.4972 -1.2361,-0.35871 -1.70076,-1.26125 -1.69858,-3.29926 0.006,-4.3848 2.99627,-12.67589 9.18181,-25.44797 0.40421,-0.83462 0.66776,-1.27225 0.80167,-1.33129 0.32011,-0.14105 1.21926,0.81074 1.77521,1.87928 1.7287,3.32247 3.37976,10.52877 4.90592,21.41261 0.85703,6.11193 0.85689,4.94586 10e-4,11.40424 l -0.74356,5.61327 -0.77688,0.72157 c -0.42727,0.39773 -1.52115,1.34146 -2.43087,2.09908 z"
           style="display:inline;fill:#ff0000;fill-opacity:1;stroke:none;stroke-width:2.0999999;stroke-miterlimit:4;stroke-dasharray:none;stroke-opacity:1" />
        <g
           transform="matrix(1,0,0,0.52438005,72.628636,39.299653)"
           id="g4333"
           style="display:inline">
          <path
             style="fill:#ffffff;fill-opacity:1;stroke:none;stroke-width:2.0999999;stroke-miterlimit:4;stroke-dasharray:none;stroke-opacity:1"
             d="m 861.26215,224.11342 a 9.9934071,8.0507959 0.93671756 0 0 -8.48724,9.05624 9.9934071,8.0507959 0.93671756 0 0 11.3002,6.90176 9.9934071,8.0507959 0.93671756 0 0 4.33709,-1.35797 9.9934071,8.0507959 0.93671756 0 0 11.17184,6.33017 9.9934071,8.0507959 0.93671756 0 0 8.48751,-9.05471 9.9934071,8.0507959 0.93671756 0 0 -11.30047,-6.90328 9.9934071,8.0507959 0.93671756 0 0 -4.33709,1.35796 9.9934071,8.0507959 0.93671756 0 0 -11.17184,-6.33017 z"
             id="path4201"
             inkscape:connector-curvature="0" />
          <ellipse
             style="fill:#000000;fill-opacity:1;stroke:none;stroke-width:2.0999999;stroke-miterlimit:4;stroke-dasharray:none;stroke-opacity:1"
             id="path4219"
             cx="866.22473"
             cy="227.39171"
             rx="2.519068"
             ry="2.0832539" />
          <ellipse
             style="fill:#000000;fill-opacity:1;stroke:none;stroke-width:2.0999999;stroke-miterlimit:4;stroke-dasharray:none;stroke-opacity:1"
             id="path4219-3"
             cx="880.72668"
             cy="231.74136"
             rx="2.519068"
             ry="2.0832539" />
          <text
             xml:space="preserve"
             style="font-style:normal;font-weight:normal;font-size:27.03677368px;line-height:125%;font-family:sans-serif;letter-spacing:0px;word-spacing:0px;fill:#ffffff;fill-opacity:1;stroke:none;stroke-width:1px;stroke-linecap:butt;stroke-linejoin:miter;stroke-opacity:1"
             x="1052.2267"
             y="329.94849"
             id="text10594"
             sodipodi:linespacing="125%"
             transform="scale(0.7907775,1.2645782)"><tspan
               sodipodi:role="line"
               id="tspan10596"
               x="1052.2267"
               y="329.94849">POLICE</tspan></text>
        </g>
        <path
           inkscape:connector-curvature="0"
           id="path10491"
           d="m 919.7274,216.47834 c -0.007,-0.0303 -0.32576,-0.84985 -0.70885,-1.82125 -4.40584,-11.17202 -6.96414,-23.84577 -6.70307,-33.20685 0.2621,-9.39801 2.79616,-16.19134 7.7484,-20.77204 0.92017,-0.85113 1.96929,-1.65883 2.05462,-1.58181 0.0339,0.0306 -0.15149,0.30637 -0.41207,0.61273 -5.60721,6.5923 -7.68835,19.25986 -5.86315,35.68812 0.70825,6.37474 2.26282,14.6805 3.71643,19.85611 0.14961,0.53272 0.25132,1.03865 0.22601,1.1243 -0.0254,0.0857 -0.0515,0.13097 -0.0583,0.10064 z"
           style="display:inline;fill:#e9c6af;fill-opacity:1;stroke:none;stroke-width:0.63099998;stroke-miterlimit:4;stroke-dasharray:none;stroke-opacity:1" />
        <path
           inkscape:connector-curvature="0"
           id="path10432"
           d="m 984.40884,318.91035 c -7.91798,-0.99596 -12.31986,-2.86028 -12.31986,-5.21779 0,-0.62438 0.2683,-1.6035 0.59621,-2.17583 1.51969,-2.65236 9.85266,-8.27753 16.92773,-11.42706 4.84411,-2.15639 4.55979,-2.65127 -1.6993,-2.95769 -10.00072,-0.4896 -13.70771,-2.27571 -11.764,-5.66815 1.50373,-2.62451 8.29838,-7.57297 15.26879,-11.12009 l 2.54894,-1.29711 -6.00872,-0.44704 c -11.59698,-0.86281 -15.95886,-2.77129 -14.02961,-6.13846 1.40557,-2.45319 8.28619,-7.18384 14.62183,-10.05296 1.46033,-0.66133 2.65515,-1.36787 2.65515,-1.57011 0,-0.20223 -2.86755,-12.51811 -6.37234,-27.3686 -3.50478,-14.8505 -6.37234,-27.14802 -6.37234,-27.32783 0,-0.45746 2.33574,2.51614 7.42126,9.4479 17.04132,23.22806 26.17032,43.29769 27.90212,61.34177 1.0857,11.31172 -1.804,22.20442 -8.1515,30.72663 -3.9841,5.34901 -12.72265,11.88498 -15.77606,11.79957 -0.77687,-0.0217 -3.22861,-0.26794 -5.4483,-0.54715 z"
           style="fill:#deaa87;fill-opacity:1;stroke:none;stroke-width:2.0999999;stroke-miterlimit:4;stroke-dasharray:none;stroke-opacity:1" />
        <path
           inkscape:connector-curvature="0"
           id="path10432-4"
           d="m 901.91735,317.57235 c 7.918,-0.99596 12.3199,-2.86028 12.3199,-5.21779 0,-0.62438 -0.2683,-1.6035 -0.5963,-2.17583 -1.5196,-2.65236 -9.8526,-8.27753 -16.9277,-11.42706 -4.8441,-2.15639 -4.5598,-2.65127 1.6993,-2.95769 10.0007,-0.4896 13.7077,-2.27571 11.764,-5.66815 -1.5037,-2.62451 -8.2984,-7.57297 -15.2688,-11.12009 l -2.5489,-1.29711 6.0087,-0.44704 c 11.597,-0.86281 15.9589,-2.77129 14.0296,-6.13846 -1.4056,-2.45319 -8.2862,-7.18384 -14.6218,-10.05296 -1.4603,-0.66133 -2.6552,-1.36787 -2.6552,-1.57011 0,-0.20223 2.8676,-12.51811 6.3724,-27.3686 3.5048,-14.8505 6.3723,-27.14802 6.3723,-27.32783 0,-0.45746 -2.3357,2.51614 -7.4212,9.4479 -17.0414,23.22806 -26.1703,43.29769 -27.9021,61.34177 -1.0857,11.31172 1.804,22.20442 8.1515,30.72663 3.984,5.34901 12.7226,11.88497 15.776,11.79957 0.7769,-0.0217 3.2286,-0.26794 5.4483,-0.54715 z"
           style="display:inline;fill:#deaa87;fill-opacity:1;stroke:none;stroke-width:2.0999999;stroke-miterlimit:4;stroke-dasharray:none;stroke-opacity:1" />
        <path
           inkscape:connector-curvature="0"
           id="path10468"
           d="m 933.26762,153.2508 c 5e-5,-0.0382 0.23691,-0.81358 0.52636,-1.72301 1.7033,-5.35166 3.32566,-9.42711 4.71256,-11.83816 0.4095,-0.71191 1.06364,-1.6605 1.11382,-1.61521 0.0312,0.0282 -0.10274,0.48999 -0.57323,1.97466 -2.03842,6.43275 -4.01235,11.08747 -5.47751,12.91654 -0.27601,0.34458 -0.30211,0.36923 -0.302,0.28518 z"
           style="fill:#ffe680;fill-opacity:1;stroke:none;stroke-width:0.30000001;stroke-miterlimit:4;stroke-dasharray:none;stroke-opacity:1" />
      </g>
      <path
         style="fill:#f4e3d7;fill-opacity:1;stroke:none;stroke-width:0.63099998;stroke-miterlimit:4;stroke-dasharray:none;stroke-opacity:1"
         d="m 880.728,303.34293 c -1.73878,-2.41674 -3.72131,-6.58182 -4.65845,-9.78688 -1.25431,-4.28988 -1.58053,-6.87664 -1.57526,-12.4907 0.005,-4.50572 0.13859,-6.24855 0.75763,-9.82812 2.41101,-13.9415 9.22501,-29.74643 20.30317,-47.09279 0.95739,-1.49909 1.90556,-2.98807 2.10706,-3.30881 0.68338,-1.08785 0.49419,-0.47841 -0.35404,1.14046 -11.92921,22.76734 -18.20892,41.02942 -19.75943,57.46254 -0.22563,2.39137 -0.22128,8.74131 0.007,10.70926 0.57824,4.97736 1.48609,8.53975 3.09025,12.12606 0.44861,1.00292 0.78958,1.84701 0.75773,1.87576 -0.0318,0.0287 -0.33605,-0.33431 -0.67599,-0.80678 z"
         id="path10552"
         inkscape:connector-curvature="0" />
      <path
         style="fill:#f4e3d7;fill-opacity:1;stroke:none;stroke-width:0.63099998;stroke-miterlimit:4;stroke-dasharray:none;stroke-opacity:1"
         d="m 915.02195,331.14945 c 0.43647,-0.40718 3.72068,-2.27878 5.76321,-3.28431 10.58316,-5.21007 22.50906,-6.67576 34.08489,-4.18902 4.91837,1.05656 10.45318,3.00774 14.93271,5.26419 0.82305,0.41459 1.41483,0.75491 1.31507,0.75628 -0.0998,10e-4 -0.83761,-0.21061 -1.63961,-0.47106 -4.86727,-1.5806 -11.45316,-2.90625 -17.63305,-3.54929 -3.37599,-0.3513 -11.61793,-0.34993 -14.87663,0.002 -7.01622,0.75871 -12.73976,2.1112 -18.92294,4.47155 -3.46406,1.32236 -3.31848,1.27424 -3.02365,0.99921 z"
         id="path10558"
         inkscape:connector-curvature="0" />
      <path
         style="display:inline;fill:#f4e3d7;fill-opacity:1;stroke:none;stroke-width:0.63099998;stroke-miterlimit:4;stroke-dasharray:none;stroke-opacity:1"
         d="m 921.16293,320.4094 c 0.35139,-0.40718 2.99538,-2.27878 4.63975,-3.28431 8.5201,-5.21007 18.1212,-6.67576 27.44048,-4.18902 3.95959,1.05656 8.41546,3.00774 12.02176,5.26419 0.66261,0.41459 1.13903,0.75491 1.05871,0.75628 -0.0803,10e-4 -0.67432,-0.21061 -1.31998,-0.47106 -3.91846,-1.5806 -9.22051,-2.90625 -14.19572,-3.54929 -2.71788,-0.3513 -9.35316,-0.34993 -11.97662,0.002 -5.6485,0.75871 -10.25631,2.1112 -15.23415,4.47155 -2.7888,1.32236 -2.67158,1.27424 -2.43423,0.99921 z"
         id="path10558-7"
         inkscape:connector-curvature="0" />
      <path
         style="display:inline;fill:#f4e3d7;fill-opacity:1;stroke:none;stroke-width:0.63099998;stroke-miterlimit:4;stroke-dasharray:none;stroke-opacity:1"
         d="m 918.32439,325.69625 c 0.39918,-0.40718 3.40275,-2.27878 5.27074,-3.28431 9.6788,-5.21007 20.58561,-6.67576 31.17227,-4.18902 4.49808,1.05656 9.55993,3.00774 13.65668,5.26419 0.75272,0.41459 1.29393,0.75491 1.20269,0.75628 -0.0912,0.001 -0.76603,-0.21061 -1.49949,-0.47106 -4.45136,-1.5806 -10.47447,-2.90625 -16.12628,-3.54929 -3.08751,-0.3513 -10.62516,-0.34993 -13.60539,0.002 -6.41668,0.75871 -11.65113,2.1112 -17.30594,4.47155 -3.16806,1.32236 -3.03491,1.27424 -2.76528,0.99921 z"
         id="path10558-8"
         inkscape:connector-curvature="0" />
    </g>
  </g>
  <g
     inkscape:groupmode="layer"
     id="layer3"
     inkscape:label="Belt">
    <g
       style="display:inline"
       id="g10620"
       transform="matrix(-0.53526648,-0.2468806,0.3002306,-0.65093563,1384.718,696.94256)">
      <rect
         ry="4.0553327"
         y="202.42596"
         x="1078.4188"
         height="79.167236"
         width="5.7075577"
         id="rect10603"
         style="fill:#000000;fill-opacity:1;stroke:none;stroke-width:0.63099998;stroke-miterlimit:4;stroke-dasharray:none;stroke-opacity:1" />
      <rect
         transform="matrix(0.01338631,0.9999104,-0.99984461,0.01762847,0,0)"
         ry="1.415972"
         y="-1102.6465"
         x="276.14053"
         height="27.642267"
         width="5.1511922"
         id="rect10603-1"
         style="display:inline;fill:#000000;fill-opacity:1;stroke:none;stroke-width:0.63099998;stroke-miterlimit:4;stroke-dasharray:none;stroke-opacity:1" />
    </g>
    <path
       transform="matrix(0.83223753,0,0,0.48353027,144.69362,43.193598)"
       style="display:inline;fill:#4d4d4d;fill-opacity:1;stroke:none;stroke-width:0.63099998;stroke-miterlimit:4;stroke-dasharray:none;stroke-opacity:1"
       d="m 832.41689,464.28147 c 10.80623,-7.0524 23.29868,-12.34707 36.67818,-12.86083 0,0 0,0 0,0 6.90064,-0.20906 13.7799,0.95883 20.20295,3.31748 0,0 0,0 0,0 6.51702,2.40758 12.49027,5.90231 17.89325,10.00322 -0.85512,2.69209 -1.78871,5.34291 -2.78983,7.95037 -5.49258,-4.35442 -11.46195,-8.02138 -17.85385,-10.29598 l 0,0 c -5.49451,-1.97059 -11.35389,-2.93149 -17.13947,-2.70604 l 0,0 c -12.09084,0.34682 -23.86302,5.98484 -34.41459,13.17506 -0.9151,-2.82272 -1.77747,-5.68505 -2.57664,-8.58328 z"
       id="rect10598"
       inkscape:path-effect="#path-effect10601"
       inkscape:original-d="m 835.0071,465.7184 69.61376,0.54839 2.44273,7.99561 -74.49922,0 z"
       inkscape:connector-curvature="0"
       sodipodi:nodetypes="ccccc" />
  </g>
</svg>
